HIERARCHY
ROOT Hips
{
	OFFSET 0.027329 -0.436096 0.279869
	CHANNELS 6 Xposition Yposition Zposition Zrotation Yrotation Xrotation 
	JOINT LeftUpLeg
	{
		OFFSET 1.363060 -1.794630 0.000000
		CHANNELS 3 Zrotation Yrotation Xrotation
		JOINT LeftLeg
		{
			OFFSET 2.448070 -6.726130 0.000295
			CHANNELS 3 Zrotation Yrotation Xrotation
			JOINT LeftFoot
			{
				OFFSET 2.562200 -7.039590 0.000036
				CHANNELS 3 Zrotation Yrotation Xrotation
				JOINT LeftToeBase
				{
					OFFSET 0.157640 -0.433110 2.322550
					CHANNELS 3 Zrotation Yrotation Xrotation
				}
			}
		}
	}
	JOINT RightUpLeg
	{
		OFFSET -1.305520 -1.794630 0.000000
		CHANNELS 3 Zrotation Yrotation Xrotation
		JOINT RightLeg
		{
			OFFSET -2.542340 -6.985620 -0.000396
			CHANNELS 3 Zrotation Yrotation Xrotation
			JOINT RightFoot
			{
				OFFSET -2.568260 -7.056230 -0.000045
				CHANNELS 3 Zrotation Yrotation Xrotation
				JOINT RightToeBase
				{
					OFFSET -0.164730 -0.452590 2.363150
					CHANNELS 3 Zrotation Yrotation Xrotation
				}
			}
		}
	}
	JOINT Spine
	{
		OFFSET 0.028270 2.035590 0.000000
		CHANNELS 3 Zrotation Yrotation Xrotation
		JOINT Spine1
		{
			OFFSET 0.056720 2.048850 -0.042750
			CHANNELS 3 Zrotation Yrotation Xrotation
			JOINT Neck1
			{
				OFFSET -0.054170 1.746240 0.172020
				CHANNELS 3 Zrotation Yrotation Xrotation
				JOINT Head
				{
					OFFSET 0.104070 1.761360 -0.123970
					CHANNELS 3 Zrotation Yrotation Xrotation
				}
			}
			JOINT LeftArm
			{
				OFFSET 3.362410 1.200890 -0.311211
				CHANNELS 3 Zrotation Yrotation Xrotation
				JOINT LeftForeArm
				{
					OFFSET 4.983000 0.000197 0.000166
					CHANNELS 3 Zrotation Yrotation Xrotation
					JOINT LeftHand
					{
						OFFSET 3.483560 0.000000 0.000019
						CHANNELS 3 Zrotation Yrotation Xrotation
						JOINT LeftHandIndex1
						{
							OFFSET 0.715260 0.000000 0.000000
							CHANNELS 3 Zrotation Yrotation Xrotation
						}
					}
				}
			}
			JOINT RightArm
			{
				OFFSET -3.136600 1.374050 -0.404651
				CHANNELS 3 Zrotation Yrotation Xrotation
				JOINT RightForeArm
				{
					OFFSET -5.241900 -0.000059 -0.000166
					CHANNELS 3 Zrotation Yrotation Xrotation
					JOINT RightHand
					{
						OFFSET -3.444170 0.000000 -0.000020
						CHANNELS 3 Zrotation Yrotation Xrotation
						JOINT RightHandIndex1
						{
							OFFSET -0.622530 0.000000 0.000000
							CHANNELS 3 Zrotation Yrotation Xrotation
						}
					}
				}
			}
		}
	}
}
MOTION
Frames: 15
Frame Time: 0.016667
-2.249801 16.775124 20.931374 1.444372 -5.449217 27.270038 -21.399842 -4.102294 -50.172204 -0.113992 2.921380 57.633490 3.508595 17.513981 -14.174336 -1.530301 -0.000001 -19.328300 18.110433 4.901988 -19.692989 1.709714 -0.816761 24.338671 -1.723936 -6.100453 -10.435438 0.030300 0.000000 -52.444301 -1.815353 0.149797 -0.316845 -6.067899 -0.040535 0.376078 6.012884 4.171748 5.247119 0.000000 -0.000000 -0.000000 -66.470349 -8.983844 -1.856967 -3.079931 -0.514285 -0.017144 14.341767 -0.280738 -0.044507 -0.078682 0.070725 0.000001 98.322343 28.980572 42.105932 1.850209 37.181710 0.006411 1.684576 12.335668 0.185922 -0.001887 -0.208734 0.000000 
-2.266473 17.046623 21.435917 1.409562 -6.395077 27.687085 -21.216943 -3.809958 -49.206297 -0.754910 2.259707 47.972906 3.503871 16.755449 -13.023231 -1.019603 0.000002 -20.810600 17.588840 3.341031 -17.671159 1.588518 -0.783177 20.210057 -0.990810 -4.487134 -1.447480 -0.916003 0.000000 -60.144003 -2.756541 1.164548 -0.668666 -6.055438 0.484594 0.543021 5.325437 3.727398 5.066360 0.000000 -0.000000 0.000000 -64.863317 -7.224246 -3.795339 -3.165480 0.747526 -0.016745 13.819999 0.987937 0.112563 -0.079645 0.064082 0.000001 98.890509 29.254935 45.454174 1.709625 41.904508 0.007078 1.971704 12.302028 0.217941 -0.007676 -0.234003 0.000000 
-2.276610 17.305737 21.943382 1.198156 -7.495825 27.996870 -20.920686 -3.316126 -47.515700 -1.391893 1.454942 37.534734 3.352546 15.475561 -11.629383 -0.456900 -0.000001 -22.908499 17.193336 1.822101 -16.209264 1.440724 -0.871541 17.334887 -0.540881 -3.103297 7.054676 -1.238003 0.000001 -64.930299 -3.555247 2.174416 -0.920408 -6.056936 1.004574 0.652556 4.649188 3.340455 4.906490 0.000000 0.000000 0.000000 -63.458247 -5.034335 -4.293493 -3.334637 0.759443 -0.014652 12.270328 2.094353 0.220858 -0.087238 0.053619 0.000000 99.588472 29.472311 47.799281 1.623292 45.962078 0.008496 2.389585 11.878625 0.255953 -0.013476 -0.254734 0.000001 
-2.281672 17.539486 22.453110 0.876974 -8.591217 28.184974 -20.434031 -2.906005 -45.237374 -1.957047 0.504292 26.822739 3.003771 13.709741 -9.702437 0.154498 0.000001 -25.579401 16.916321 0.359997 -15.168083 1.280243 -1.008137 15.736007 -0.394854 -2.237607 14.059622 -1.192702 -0.000000 -66.659396 -4.218063 3.084084 -1.102574 -6.068313 1.471416 0.699993 4.009903 3.029867 4.779461 -0.000000 0.000000 -0.000000 -62.204468 -2.670594 -3.800519 -3.559219 0.379263 -0.011637 9.927976 2.718940 0.234965 -0.098902 0.039935 -0.000001 100.386553 29.584496 49.512591 1.574465 49.361687 0.010605 3.015956 11.259157 0.307255 -0.021534 -0.270062 -0.000001 
-2.283000 17.735840 22.963978 0.470535 -9.579959 28.272253 -19.726561 -2.671930 -42.873251 -2.383892 -0.458670 16.870511 2.484922 11.622364 -7.322062 0.701601 -0.000002 -28.325495 16.755008 -0.983566 -14.426214 1.117799 -1.143868 15.418559 -0.476526 -2.240377 18.819499 -1.249199 -0.000000 -66.131003 -4.715344 3.840262 -1.264931 -6.087014 1.857836 0.700309 3.401740 2.768071 4.661379 0.000000 -0.000000 -0.000000 -61.054077 -0.279542 -2.688300 -3.799251 0.104387 -0.008920 7.286055 2.949979 0.189061 -0.111276 0.024610 -0.000001 101.238933 29.644491 50.921819 1.550469 52.126339 0.013312 3.816497 10.672558 0.369643 -0.031981 -0.281050 0.000000 
-2.282144 17.886429 23.473629 0.029148 -10.371196 28.269094 -19.023413 -2.406065 -41.145407 -2.700403 -1.237435 8.949339 1.875069 9.191256 -5.087866 0.996199 -0.000001 -30.710302 16.669884 -2.213382 -13.934283 0.955015 -1.274903 16.412089 -0.681637 -3.201781 21.035697 -1.697001 -0.000000 -64.513800 -5.047242 4.397651 -1.414403 -6.115104 2.140782 0.654395 2.831647 2.593971 4.536730 -0.000000 0.000000 0.000000 -59.977953 2.213509 -1.279889 -4.018262 -0.218294 -0.007961 4.885158 3.299184 0.143741 -0.121971 0.009673 -0.000001 102.130775 29.672275 52.165384 1.540329 54.342963 0.016460 4.758213 10.233658 0.443120 -0.044937 -0.289501 0.000001 
-2.279527 17.987946 23.978958 -0.304846 -10.874301 28.168250 -18.657484 -1.990705 -40.434771 -2.989563 -1.760191 3.710680 1.284477 6.491538 -3.690101 0.956000 -0.000001 -32.770899 16.532820 -3.454015 -13.749477 0.787333 -1.427173 18.758577 -0.928568 -4.718175 20.899971 -2.363999 0.000000 -62.758100 -5.309295 4.712345 -1.517299 -6.156294 2.299545 0.561029 2.326961 2.551167 4.407498 0.000000 -0.000000 -0.000000 -58.933788 4.786847 0.154578 -4.192770 -0.731954 -0.009646 3.125919 4.225973 0.120098 -0.130144 -0.002700 -0.000000 103.060781 29.695309 53.233880 1.532558 56.089846 0.019699 5.741346 9.964035 0.521792 -0.059640 -0.297021 0.000001 
-2.273686 18.040499 24.477222 -0.434007 -11.055180 27.986676 -18.569897 -1.771305 -40.492548 -3.232307 -2.085854 0.870135 0.863265 4.208790 -3.419310 0.742400 -0.000000 -34.559400 16.236309 -4.801371 -13.954838 0.618969 -1.629689 22.400318 -1.163827 -6.191261 19.038781 -2.866400 0.000000 -61.385801 -5.560656 4.793809 -1.547398 -6.205564 2.340044 0.429659 1.893059 2.629609 4.283298 -0.000000 -0.000000 -0.000000 -57.924464 7.296635 1.580984 -4.311403 -1.462328 -0.013900 2.197521 5.919385 0.120639 -0.135803 -0.011099 0.000000 103.966559 29.760869 54.059678 1.519621 57.403880 0.022454 6.561902 9.857284 0.591065 -0.073247 -0.304687 -0.000000 
-2.262657 18.045057 24.966982 -0.420101 -10.969979 27.742414 -18.479315 -2.006362 -40.925119 -3.359728 -2.259609 -0.109548 0.700570 3.012278 -4.128174 0.553197 -0.000000 -35.869203 15.794855 -6.197528 -14.496629 0.456168 -1.895007 27.068858 -1.357218 -7.281314 16.337696 -3.027002 -0.000001 -60.668898 -5.730291 4.739459 -1.466519 -6.249132 2.310104 0.274538 1.505738 2.785318 4.173504 -0.000000 -0.000000 0.000000 -57.018743 9.554469 3.021964 -4.368487 -2.365409 -0.019784 2.111107 8.228484 0.161779 -0.138931 -0.014813 -0.000001 104.708355 29.890811 54.560480 1.498716 58.319504 0.024118 6.990282 9.898671 0.633154 -0.081806 -0.312950 0.000000 
-2.245497 18.002455 25.448484 -0.373201 -10.730699 27.443152 -18.161067 -2.730933 -41.426899 -3.320684 -2.291972 0.267401 0.809186 3.202276 -5.299952 0.464099 -0.000002 -36.510399 15.263114 -7.488887 -15.215235 0.291464 -2.216737 32.354488 -1.500636 -7.968167 13.594321 -2.923399 -0.000000 -60.577300 -5.749656 4.676103 -1.248958 -6.273709 2.272545 0.107202 1.149252 2.968591 4.080411 0.000000 0.000000 0.000000 -56.287477 11.390539 4.397999 -4.366417 -3.359319 -0.025861 2.765447 10.753213 0.273226 -0.139208 -0.013647 0.000000 105.148017 30.062295 54.659690 1.469654 58.894708 0.024263 6.881206 10.065554 0.634275 -0.082517 -0.321979 -0.000000 
-2.223838 17.913141 25.923294 -0.373144 -10.444095 27.109694 -17.587916 -3.791014 -41.941714 -3.118540 -2.171144 1.741870 1.131065 4.597636 -6.325457 0.461599 -0.000000 -36.588499 14.694337 -8.494300 -15.955022 0.107037 -2.573317 37.864108 -1.610844 -8.440772 11.263280 -2.729500 -0.000000 -60.880801 -5.611802 4.697781 -0.915039 -6.274079 2.275333 -0.058249 0.832333 3.125494 3.983813 0.000000 -0.000000 -0.000000 -55.766054 12.622164 5.776062 -4.318010 -4.225858 -0.030661 3.922081 12.989548 0.461795 -0.136344 -0.008653 -0.000001 105.215146 30.241366 54.327356 1.434914 59.192817 0.022810 6.243723 10.337265 0.591225 -0.075178 -0.331732 -0.000003 
-2.201668 17.777107 26.393280 -0.374856 -10.166254 26.791024 -16.960915 -4.995688 -42.635797 -2.814308 -1.892051 4.294405 1.564457 6.712344 -6.770913 0.557402 -0.000000 -36.524400 14.065056 -9.133256 -16.698180 -0.106588 -2.947824 43.399850 -1.711120 -8.884834 9.345118 -2.544699 -0.000001 -61.009000 -5.458873 4.811768 -0.556480 -6.256268 2.325466 -0.215230 0.603487 3.238662 3.855339 0.000000 -0.000000 -0.000000 -55.412398 13.162673 7.114484 -4.249968 -4.765583 -0.033373 5.249795 14.540500 0.686085 -0.131109 -0.001671 -0.000000 104.966207 30.361225 53.550240 1.398228 59.276856 0.020179 5.288494 10.661868 0.516491 -0.063302 -0.341818 0.000002 
-2.183659 17.594162 26.859322 -0.268734 -9.912852 26.530652 -16.765775 -5.900908 -43.998536 -2.540773 -1.426429 8.347818 1.946286 8.624179 -6.680816 0.730801 0.000000 -36.690297 13.312970 -9.434053 -17.507368 -0.349918 -3.331245 48.938461 -1.816164 -9.413598 7.561655 -2.380100 -0.000001 -60.407101 -5.494543 4.963127 -0.270776 -6.235942 2.398441 -0.366050 0.524032 3.332691 3.669690 -0.000000 0.000000 0.000000 -55.141665 13.084377 8.075035 -4.194168 -4.955605 -0.034199 6.440905 15.232200 0.877590 -0.125619 0.005580 0.000001 104.564683 30.348034 52.336746 1.365025 59.172104 0.017201 4.348558 10.968856 0.437143 -0.052563 -0.351449 0.000000 
-2.172187 17.365221 27.320576 0.017702 -9.675235 26.334124 -17.393816 -6.108526 -46.469891 -2.381851 -0.732365 14.400270 2.145465 9.535542 -6.530584 0.848399 -0.000002 -36.900302 12.406460 -9.496894 -18.425690 -0.622695 -3.721657 54.510031 -1.923364 -10.026495 5.604536 -2.189201 -0.000001 -58.818498 -5.845288 5.083931 -0.095168 -6.231151 2.460992 -0.517373 0.627305 3.458309 3.428612 -0.000000 0.000000 0.000000 -54.880783 12.482207 8.519076 -4.177877 -4.769991 -0.033827 7.198412 15.079558 0.968401 -0.122315 0.011897 0.000001 104.197562 30.154773 50.699835 1.340458 58.826324 0.014652 3.719234 11.204668 0.382274 -0.047918 -0.359460 -0.000001 
-2.166733 17.094099 27.774353 0.406766 -9.444542 26.158613 -18.759797 -5.597577 -50.074148 -2.275004 0.203710 22.589299 2.149182 9.295904 -6.989561 0.732799 -0.000001 -36.223200 11.436996 -9.400869 -19.405545 -0.930059 -4.114444 60.082786 -2.017703 -10.636590 3.334304 -1.920801 0.000001 -56.435799 -6.409473 5.146670 0.033989 -6.252221 2.496627 -0.668711 0.881787 3.664975 3.166117 0.000000 -0.000000 0.000000 -54.654580 11.471479 8.258477 -4.205129 -4.307762 -0.032809 7.409299 14.239190 0.939918 -0.122352 0.017384 -0.000001 103.957381 29.776744 48.634988 1.329005 58.116020 0.012944 3.502030 11.360007 0.365569 -0.050569 -0.364226 -0.000000 
